<svg width="1080" height="1080" viewBox="0 0 1080 1080" fill="none" xmlns="http://www.w3.org/2000/svg">
<g clip-path="url(#clip0_1074_330)">
<path d="M577 -12.8434C625.039 -12.8434 712.823 -24.2811 750.711 -30V98.6747C761.005 98.6747 835.064 101.534 870.807 102.964C1063.82 128.699 986.614 326 870.807 326L641.337 319.566C557.699 308.843 587.723 195.181 577 -12.8434Z" fill="#3B3B3D" stroke="#3B3B3D" stroke-width="4.28916"/>
<path d="M540.371 -12.8434C492.333 -12.8434 404.548 -24.2811 366.66 -30V98.6747C356.366 98.6747 282.307 101.534 246.564 102.964C53.5518 128.699 130.757 326 246.564 326L476.034 319.566C559.672 308.843 529.648 195.181 540.371 -12.8434Z" fill="#3B3B3D" stroke="#3B3B3D" stroke-width="4.28916"/>
</g>
<defs>
<clipPath id="clip0_1074_330">
<rect width="1080" height="1080" fill="white"/>
</clipPath>
</defs>
</svg>
