<svg width="340" height="784" viewBox="0 0 340 784" fill="none" xmlns="http://www.w3.org/2000/svg">
<path d="M111.564 31.5929C105.064 20.5929 99.064 30.0929 103.564 36.0929L122.564 65.0929C128.564 73.8929 134.064 66.0929 129.564 60.0929L111.564 31.5929Z" fill="#F6554D" stroke="#F6554D"/>
<path d="M154.064 10.0929C151.064 -6.4071 142.564 2.5929 145.064 11.5929L154.064 59.5145C158.459 73.5929 165.564 66.5929 163.064 59.5145L154.064 10.0929Z" fill="#F6554D" stroke="#F6554D"/>
<path d="M195.064 26.0929C197.781 14.2117 187.467 17.8518 186.564 24.5929L178.064 58.0929C176.674 62.7261 184.583 65.3198 186.564 59.5929L195.064 26.0929Z" fill="#F6554D" stroke="#F6554D"/>
<path d="M234.064 38.5929C243.189 26.9856 230.538 26.189 226.064 33.0929L199.564 63.5929C195.642 67.955 200.927 74.8534 206.064 69.5929L234.064 38.5929Z" fill="#F6554D" stroke="#F6554D"/>
<path d="M172 704C183.2 704 203.667 701.333 212.5 700V730C214.9 730 232.167 730.667 240.5 731C285.5 737 267.5 783 240.5 783L187 781.5C167.5 779 174.5 752.5 172 704Z" fill="#3B3B3D" stroke="#3B3B3D"/>
<path d="M122 727V701.5C130.5 702.5 151.5 704.167 161 704C161 715.5 163.5 770.5 154.5 775.5C83.3 791.1 66.1667 771.333 66.5001 759.5C61 727 93.5 727 122 727Z" fill="#3B3B3D" stroke="#3B3B3D"/>
<path d="M54.298 465.839C-24.502 440.239 16.7978 367.839 54.298 351.839C97.7979 326.339 99.7979 298.839 60.7979 278.339C-21.2021 229.939 13.9645 150.839 41.7979 117.339C132.298 8.33878 257.298 58.3388 298.798 117.339C350.298 183.839 342.798 252.339 273.798 290.839C228.598 322.839 257.631 347.839 277.798 356.339C371.798 390.839 344.798 447.051 281.798 479.339C249.798 495.739 268.465 516.839 281.798 525.339C356.198 585.339 318.798 649.839 293.798 668.839C201.798 727.839 72.7979 698.839 40.7978 675.339C-27.2022 616.339 -0.202145 544.839 62.7978 521.339C112.398 494.539 77.798 473.172 54.298 465.839Z" fill="#EC79A2" stroke="#EC79A2"/>
<path d="M174.738 208.068C171.138 195.268 167.238 202.734 165.738 208.068C157.738 230.568 159.738 227.068 172.738 227.068C182.238 226.568 179.738 225.068 174.738 208.068Z" fill="#222720" stroke="#222720"/>
<circle cx="128" cy="152" r="38.5" fill="white" stroke="white"/>
<circle cx="128.5" cy="151.5" r="11" fill="#232323" stroke="#232323"/>
<circle cx="213" cy="154" r="38.5" fill="white" stroke="white"/>
<circle cx="214.5" cy="153.5" r="11" fill="#232323" stroke="#232323"/>
</svg>
