<svg width="1080" height="1080" viewBox="0 0 1080 1080" fill="none" xmlns="http://www.w3.org/2000/svg">
<g clip-path="url(#clip0_1074_256)">
<path d="M340.46 78.4242C324.325 51.1183 309.43 74.7007 320.601 89.5948L367.766 161.583C382.66 183.428 396.313 164.066 385.142 149.172L340.46 78.4242Z" fill="#F6554D" stroke="#F6554D" stroke-width="2.48236"/>
<path d="M445.96 25.0542C438.513 -15.9047 417.413 6.4365 423.619 28.7777L445.96 147.736C456.87 182.684 474.507 165.308 468.301 147.736L445.96 25.0542Z" fill="#F6554D" stroke="#F6554D" stroke-width="2.48236"/>
<path d="M547.737 64.7716C554.482 35.2781 528.877 44.3141 526.637 61.048L505.536 144.207C502.087 155.708 521.718 162.147 526.637 147.931L547.737 64.7716Z" fill="#F6554D" stroke="#F6554D" stroke-width="2.48236"/>
<path d="M644.547 95.8016C667.199 66.9881 635.794 65.0106 624.688 82.1486L558.905 157.861C549.17 168.689 562.288 185.813 575.04 172.755L644.547 95.8016Z" fill="#F6554D" stroke="#F6554D" stroke-width="2.48236"/>
<path d="M198.305 1156.38C2.69493 1092.83 105.216 913.108 198.305 873.391C306.287 810.091 311.252 741.826 214.44 690.938C10.8862 570.791 98.1826 374.436 167.275 291.277C391.929 20.7001 702.224 144.818 805.242 291.277C933.083 456.354 914.466 626.396 743.183 721.967C630.98 801.402 703.051 863.461 753.112 884.561C986.454 970.203 919.43 1109.74 763.042 1189.89C683.606 1230.6 729.943 1282.98 763.042 1304.08C947.729 1453.02 854.889 1613.14 792.83 1660.3C564.453 1806.76 244.228 1734.77 164.793 1676.44C-4.00795 1529.98 63.0158 1352.49 219.405 1294.15C342.53 1227.62 256.64 1174.58 198.305 1156.38Z" fill="#EC79A2" stroke="#EC79A2" stroke-width="2.48236"/>
<path d="M497.28 516.499C488.344 484.725 478.662 503.26 474.939 516.499C455.08 572.352 460.044 563.664 492.315 563.664C515.898 562.423 509.692 558.699 497.28 516.499Z" fill="#222720" stroke="#222720" stroke-width="2.48236"/>
<circle cx="381.259" cy="377.319" r="95.5709" fill="white" stroke="white" stroke-width="2.48236"/>
<circle cx="382.5" cy="376.078" r="27.306" fill="#232323" stroke="#232323" stroke-width="2.48236"/>
<circle cx="592.259" cy="382.284" r="95.5709" fill="white" stroke="white" stroke-width="2.48236"/>
<circle cx="595.983" cy="381.043" r="27.306" fill="#232323" stroke="#232323" stroke-width="2.48236"/>
</g>
<defs>
<clipPath id="clip0_1074_256">
<rect width="1080" height="1080" fill="white"/>
</clipPath>
</defs>
</svg>
