<svg width="448" height="345" viewBox="0 0 448 345" fill="none" xmlns="http://www.w3.org/2000/svg">
<path d="M447.175 250.215L395.577 262.849C407.755 219.365 395.577 201.883 374.988 187.339C358.517 169.711 300.919 169.417 274.178 171.474C229.36 171.474 170.481 183.667 107.71 224.36C52.2712 262.085 60.8415 307.361 72.0565 325.284L34.5196 333.217L1 106.1L413.781 23.6862L447.175 250.215Z" fill="#CFD72A" stroke="#00B058" stroke-width="0.0816273"/>
<path d="M387.242 255.627L379.826 242.763L371.431 226.316L403.611 205.961L407.249 219.477C401.793 241.134 397.315 246.019 387.242 258.721C382.456 264.754 374.09 272.345 370.452 275.33L371.431 268.165L387.242 255.627Z" fill="#EC79A2" stroke="#EC79A2" stroke-width="0.0901083"/>
<path d="M378.847 241.786L386.822 255.301C384.443 260.349 350.304 282.495 348.485 282.495C342.329 288.227 319.71 298.453 309.17 302.85C300.915 308.386 269.434 320.274 241.032 328.741C235.575 332.975 184.087 341.768 179.61 342.745C175.133 343.722 146.87 343.234 116.229 341.768C108.618 342.029 92.2573 335.689 85.0284 332.487C69.7778 325.484 59.4077 315.877 51.8689 296.825C44.0338 277.024 52.0555 252.641 57.0457 242.925C64.741 225.99 79.168 213.289 94.6824 201.402C108.114 191.11 123.225 183.001 129.101 180.233C138.056 175.022 163.94 164.763 177.371 161.832C187.557 158.575 201.576 154.396 207.313 152.713C217.247 148.968 232.217 147.014 247.608 145.548C252.365 143.594 285.571 141.477 302.314 141.314C320.922 139.686 361.917 143.594 374.369 149.293C401.373 156.621 417.323 179.473 421.24 191.468C427.257 209.706 419.002 238.04 406.409 258.884C400.477 272.562 377.261 291.18 366.394 298.779C364.016 294.599 359.259 285.752 359.259 283.798C374.481 275.851 389.853 255.844 395.636 246.833C408.088 216.22 412.286 213.126 408.088 210.358C407.948 187.235 395.916 175.999 369.612 165.903C352.151 160.171 322.788 159.172 310.289 159.389C290.281 157.598 241.591 163.297 222.423 167.368C203.675 168.183 150.228 187.072 124.764 202.541C109.653 209.446 85.8215 232.341 75.7944 242.925C61.1035 259.046 57.4655 293.731 83.4897 311.318C109.57 331.379 171.309 325.756 198.918 320.437C270.778 307.019 350.584 263.932 378.847 241.786Z" fill="black" stroke="black" stroke-width="0.0901083"/>
<path d="M218.929 165.296C269.842 159.554 318.495 155.467 353.913 161.031C371.621 163.813 386.015 169.007 395.728 177.608C405.439 186.208 410.475 198.217 409.462 214.64L409.507 214.641L409.461 214.64L409.462 214.646C409.512 215.688 409.079 216.959 408.189 218.434C407.3 219.908 405.959 221.58 404.201 223.423C400.686 227.11 395.51 231.474 388.975 236.291C375.906 245.923 357.404 257.36 335.882 268.798C292.837 291.675 237.716 314.552 189.818 322.998C141.918 331.444 109.993 328.016 90.0461 318.01C70.1026 308.005 62.1275 291.422 62.1274 273.537L62.0834 273.539L62.1284 273.537L62.1276 273.531C61.2678 266.926 64.6426 257.915 71.6982 247.844C78.7521 237.775 89.4791 226.654 103.309 215.832C130.968 194.188 171.033 173.742 218.929 165.296Z" fill="#EC79A2" stroke="#EC79A2" stroke-width="0.0901083"/>
<path d="M160.546 59.5272L161.619 81.1676C159.592 80.0174 156.425 78.9003 155.095 78.4855L154.046 59.909L160.546 59.5272Z" fill="black" stroke="black" stroke-width="0.0816273"/>
<path d="M145.788 61.5494L139.206 61.705C139.532 64.4688 140.132 71.6536 139.928 78.2829C141.376 77.7173 144.83 77.7895 146.448 77.6843L145.788 61.5494Z" fill="black" stroke="black" stroke-width="0.0816273"/>
<path d="M125.027 63.0155L126.263 85.1084C128.109 83.7923 130.842 82.5803 131.977 82.1387L131.028 62.4781L125.027 63.0155Z" fill="black" stroke="black" stroke-width="0.0816273"/>
<path d="M150.045 77.6214C169.068 79.3842 182.972 97.2475 181.093 117.525C179.214 137.803 162.265 152.808 143.242 151.045C124.219 149.283 110.316 131.419 112.195 111.141C114.073 90.8636 131.022 75.8588 150.045 77.6214Z" fill="#04070A" stroke="#04070A" stroke-width="0.0816273"/>
<path d="M149.259 83.8905C165.136 85.3619 176.753 100.125 175.201 116.87C173.649 133.614 159.518 145.992 143.641 144.521C127.764 143.05 116.147 128.287 117.698 111.542C119.25 94.7972 133.382 82.4194 149.259 83.8905Z" fill="#5668B0" stroke="#01AF56" stroke-width="0.0816273"/>
<path d="M162.425 103.48C166.724 103.879 169.852 108.159 169.398 113.051C168.945 117.944 165.084 121.577 160.785 121.179C156.485 120.781 153.359 116.499 153.812 111.607C154.265 106.715 158.125 103.082 162.425 103.48Z" fill="#04070A" stroke="black" stroke-width="0.0816273"/>
<path d="M109.275 160.844L96.1826 163.389L57.8306 124.357L66.5378 169.151L53.4454 171.696L40.7391 106.328L53.8314 103.783L92.2017 142.909L83.4763 98.0204L96.5687 95.4755L109.275 160.844Z" fill="black"/>
<path d="M204.045 95.9614L208.917 121.024C209.256 122.77 209.91 123.969 210.878 124.622C211.896 125.2 213.403 125.296 215.398 124.908L221.477 123.726L223.622 134.761L215.392 136.361C204.357 138.506 197.797 134.217 195.713 123.494L190.86 98.5245L184.687 99.7243L182.597 88.9698L188.769 87.7701L186.279 74.9582L199.465 72.3952L201.955 85.207L213.551 82.9529L215.642 93.7074L204.045 95.9614ZM275.946 96.5429C276.31 98.4133 276.512 100.121 276.554 101.666L238.679 109.028C239.718 112.708 241.597 115.383 244.316 117.055C247.035 118.726 250.077 119.234 253.444 118.58C258.307 117.635 261.361 114.874 262.606 110.297L276.727 107.552C276.201 112.83 274.133 117.502 270.523 121.568C266.902 125.572 262.005 128.174 255.833 129.374C250.846 130.343 246.145 130.125 241.73 128.718C237.366 127.237 233.668 124.689 230.636 121.072C227.667 117.444 225.667 112.98 224.637 107.681C223.594 102.319 223.77 97.4004 225.165 92.9238C226.559 88.4473 229.008 84.7362 232.512 81.7907C236.015 78.8452 240.323 76.8755 245.435 75.8818C250.361 74.9244 254.962 75.1299 259.239 76.4983C263.579 77.8546 267.191 80.2905 270.074 83.8062C273.007 87.2474 274.965 91.493 275.946 96.5429ZM261.659 95.438C260.942 92.0835 259.206 89.639 256.449 88.1045C253.68 86.5076 250.581 86.0425 247.152 86.709C243.91 87.3391 241.361 88.8699 239.504 91.3012C237.698 93.658 236.884 96.6305 237.064 100.219L261.659 95.438ZM300.636 108.631L323.734 104.141L325.825 114.895L287.857 122.275L285.803 111.708L302.508 76.8223L279.97 81.2031L277.88 70.4487L315.474 63.1412L317.528 73.7086L300.636 108.631ZM375.455 51.4819L358.212 134.027L344.278 136.735L350.483 108.743L319.906 62.2796L334.588 59.4257L354.996 93.0173L361.521 54.1904L375.455 51.4819Z" fill="black"/>
</svg>
