<svg width="9374" height="9374" viewBox="0 0 9374 9374" fill="none" xmlns="http://www.w3.org/2000/svg">
<path d="M5920.39 641.623L6040.49 2576.49C5842.58 2472.22 5534.04 2370.07 5404.51 2332.02L5288.97 671.006L5920.39 641.623Z" fill="black" stroke="black" stroke-width="7.28981"/>
<path d="M4487.59 811.583L3848.07 820.684C3881.71 1067.93 3945.25 1710.51 3930.29 2302.84C4070.59 2253.34 4406.39 2262.32 4563.49 2254.1L4487.59 811.583Z" fill="black" stroke="black" stroke-width="7.28981"/>
<path d="M2471.05 927.461L2607.35 2902.89C2785.77 2786.61 3050.43 2680.28 3160.45 2641.65L3053.88 883.813L2471.05 927.461Z" fill="black" stroke="black" stroke-width="7.28981"/>
<path d="M4913.05 2251.08C6763.57 2422.54 8127.56 4029.47 7959.8 5840.11C7792.03 7650.74 6156.01 8979.71 4305.49 8808.24C2454.97 8636.78 1090.98 7029.85 1258.75 5219.22C1426.51 3408.58 3062.53 2079.62 4913.05 2251.08Z" fill="#04070A" stroke="#04070A" stroke-width="7.28981"/>
<path d="M4841.24 2810.8C6385.78 2953.91 7525.36 4282.14 7386.83 5777.25C7248.3 7272.37 5884.08 8368.6 4339.53 8225.49C2794.99 8082.38 1655.41 6754.15 1793.94 5259.04C1932.47 3763.92 3296.69 2667.69 4841.24 2810.8Z" fill="#5668B0" stroke="#01AF56" stroke-width="7.28981"/>
<path d="M6135.09 4571.24C6553.71 4610.03 6860.54 4995.18 6820.09 5431.79C6779.64 5868.4 6407.25 6190.62 5988.64 6151.84C5570.02 6113.05 5263.18 5727.9 5303.63 5291.28C5344.09 4854.67 5716.47 4532.45 6135.09 4571.24Z" fill="#04070A" stroke="black" stroke-width="7.28981"/>
</svg>
